<?xml version="1.0" standalone="no"?>
<!DOCTYPE svg PUBLIC "-//W3C//DTD SVG 20010904//EN"
 "http://www.w3.org/TR/2001/REC-SVG-20010904/DTD/svg10.dtd">
<svg version="1.0" xmlns="http://www.w3.org/2000/svg"
 width="400.000000pt" height="400.000000pt" viewBox="0 0 400.000000 400.000000"
 preserveAspectRatio="xMidYMid meet">
<metadata>
Created by potrace 1.11, written by Peter Selinger 2001-2013
</metadata>
<g transform="translate(0.000000,400.000000) scale(0.100000,-0.100000)"
fill="#000000" stroke="none">
<path d="M2043 2793 c26 -2 68 -2 95 0 26 2 4 3 -48 3 -52 0 -74 -1 -47 -3z"/>
<path d="M1948 2783 c6 -2 18 -2 25 0 6 3 1 5 -13 5 -14 0 -19 -2 -12 -5z"/>
<path d="M2075 2779 c-71 -4 -139 -6 -150 -4 -11 1 -13 0 -5 -3 8 -2 -12 -13
-45 -23 -70 -21 -85 -18 -23 5 26 10 31 14 14 11 -53 -11 -158 -64 -150 -76 4
-8 3 -9 -4 -5 -14 9 -55 -12 -47 -24 3 -5 0 -12 -6 -16 -8 -4 -9 -3 -5 4 13
21 -10 13 -30 -10 -19 -22 -19 -23 1 -8 20 15 20 14 1 -8 -20 -23 -32 -30 -21
-12 3 6 2 10 -2 10 -21 0 -159 -161 -183 -214 -8 -16 -7 -16 7 4 62 85 105
139 134 165 19 17 12 6 -16 -25 -26 -30 -66 -82 -87 -115 -22 -33 -43 -59 -46
-58 -4 1 -8 -8 -8 -20 -1 -12 -13 -52 -27 -88 -99 -255 -30 -551 182 -784 35
-39 35 -39 3 -10 -30 26 -73 79 -135 165 -14 20 -15 20 -7 4 24 -53 162 -214
183 -214 4 0 5 6 1 13 -4 6 2 3 14 -7 26 -23 29 -34 5 -15 -15 11 -14 10 1 -9
20 -23 43 -31 30 -10 -4 7 -3 8 5 4 6 -4 9 -11 6 -16 -8 -12 33 -33 47 -24 7
4 8 3 4 -5 -8 -12 96 -65 150 -76 16 -3 0 6 -36 20 -36 14 -69 30 -75 36 -5 5
20 -2 55 -17 178 -72 389 -72 570 0 36 14 56 19 46 11 -23 -17 -14 -20 15 -4
11 5 16 15 13 21 -4 7 -3 8 4 4 15 -9 54 12 47 24 -3 6 0 7 7 5 7 -3 29 9 48
26 19 17 26 25 15 18 -16 -11 -15 -8 4 14 25 28 43 38 21 12 -23 -28 6 -15 35
15 40 42 39 68 -4 115 -27 31 -24 29 12 -6 26 -26 47 -44 47 -40 0 3 -24 31
-54 60 l-55 54 -61 -56 c-69 -65 -127 -100 -214 -134 -52 -20 -46 -25 11 -7
16 5 16 4 2 -5 -59 -38 -256 -52 -365 -26 -66 15 -147 45 -141 51 2 3 20 -3
40 -11 69 -29 52 -15 -32 26 -83 40 -172 116 -230 194 -13 18 -18 21 -11 7 6
-12 38 -52 72 -90 58 -63 59 -64 10 -17 -63 60 -106 120 -97 135 3 6 1 9 -6 8
-19 -4 -68 131 -81 221 -8 58 -8 99 1 155 13 90 62 222 80 218 7 -1 10 2 6 8
-4 6 1 23 11 38 24 37 113 130 148 155 16 11 -7 -15 -51 -59 -44 -43 -86 -90
-92 -104 -10 -20 -8 -19 10 5 58 78 147 154 230 194 84 41 101 55 32 26 -20
-8 -38 -14 -40 -11 -6 6 75 36 141 51 78 19 204 19 282 0 63 -15 174 -59 174
-70 0 -3 -14 2 -31 10 -17 9 -32 15 -34 13 -2 -2 21 -16 50 -32 30 -15 84 -55
120 -88 l65 -60 30 22 c29 21 80 80 80 94 0 11 -82 96 -92 96 -6 0 -4 -8 3
-17 7 -10 1 -7 -14 6 -30 28 -36 40 -9 21 9 -7 1 2 -18 19 -19 17 -41 29 -48
26 -7 -2 -10 -1 -7 5 7 12 -32 33 -47 24 -7 -4 -8 -3 -4 4 3 6 -2 16 -13 21
-29 16 -38 13 -15 -4 10 -8 -15 -1 -56 15 -41 15 -97 32 -125 36 -47 7 -48 8
-20 15 38 8 26 8 -150 -2z m-276 -53 c-2 -2 -15 -9 -29 -15 -24 -11 -24 -11
-6 3 16 13 49 24 35 12z m742 -83 c13 -16 12 -17 -3 -4 -10 7 -18 15 -18 17 0
8 8 3 21 -13z m139 -131 c0 -4 -23 -30 -50 -57 l-50 -50 -53 55 -52 55 52 -50
53 -49 45 44 c25 24 45 47 45 51 0 4 -12 22 -26 41 l-26 33 31 -33 c17 -18 31
-36 31 -40z m-880 53 c0 -2 -10 -9 -22 -15 -22 -11 -22 -10 -4 4 21 17 26 19
26 11z m666 -46 c3 -6 -5 -3 -20 6 -14 10 -26 19 -26 22 0 7 39 -17 46 -28z
m114 -882 c0 -1 -24 -25 -52 -52 l-53 -50 50 53 c46 48 55 57 55 49z m-839
-114 c13 -16 12 -17 -3 -4 -10 7 -18 15 -18 17 0 8 8 3 21 -13z m724 7 c-3 -5
-16 -15 -28 -21 -19 -9 -19 -8 3 10 28 23 34 26 25 11z m-665 -46 c0 -2 -9 0
-20 6 -11 6 -20 13 -20 16 0 2 9 0 20 -6 11 -6 20 -13 20 -16z m860 23 c0 -2
-10 -12 -22 -23 l-23 -19 19 23 c18 21 26 27 26 19z m-250 -12 c0 -6 -56 -35
-67 -35 -4 1 8 9 27 20 39 22 40 22 40 15z m140 -79 c0 -2 -8 -10 -17 -17 -16
-13 -17 -12 -4 4 13 16 21 21 21 13z"/>
<path d="M2268 2773 c7 -3 16 -2 19 1 4 3 -2 6 -13 5 -11 0 -14 -3 -6 -6z"/>
<path d="M2370 2740 c8 -5 20 -10 25 -10 6 0 3 5 -5 10 -8 5 -19 10 -25 10 -5
0 -3 -5 5 -10z"/>
<path d="M2048 2623 c29 -2 74 -2 100 0 26 2 2 3 -53 3 -55 0 -76 -1 -47 -3z"/>
<path d="M1958 2613 c6 -2 18 -2 25 0 6 3 1 5 -13 5 -14 0 -19 -2 -12 -5z"/>
<path d="M2208 2613 c6 -2 18 -2 25 0 6 3 1 5 -13 5 -14 0 -19 -2 -12 -5z"/>
<path d="M1918 2603 c7 -3 16 -2 19 1 4 3 -2 6 -13 5 -11 0 -14 -3 -6 -6z"/>
<path d="M2280 2595 c46 -18 64 -17 25 0 -16 8 -37 14 -45 14 -8 0 1 -7 20
-14z"/>
<path d="M2083 2553 c9 -2 23 -2 30 0 6 3 -1 5 -18 5 -16 0 -22 -2 -12 -5z"/>
<path d="M2015 2541 c28 -7 27 -7 -20 -14 -27 -4 -74 -18 -102 -32 -61 -28
-71 -25 -15 4 20 11 33 20 29 21 -18 1 -87 -42 -82 -50 3 -5 0 -7 -8 -4 -14 5
-147 -109 -147 -126 0 -5 21 13 48 39 33 33 36 35 9 6 -35 -39 -42 -63 -25
-91 4 -6 139 -138 300 -294 l293 -284 -290 295 -290 294 297 -295 c224 -222
295 -297 287 -307 -15 -18 -106 -49 -165 -57 -56 -7 -134 5 -185 28 -25 12
-27 14 -9 10 l25 -5 -25 15 c-30 18 -44 20 -34 4 5 -7 3 -8 -5 -3 -9 5 0 21
33 54 66 67 57 76 -11 11 l-58 -55 60 62 59 63 -34 38 c-28 30 -26 29 8 -4 23
-24 42 -40 42 -36 0 11 -94 102 -106 102 -5 0 -59 -50 -119 -111 l-110 -110
68 -65 c43 -41 74 -63 83 -60 8 3 12 1 9 -4 -5 -8 64 -51 82 -50 4 1 -9 10
-29 21 -21 11 -38 22 -38 24 0 3 18 -4 41 -16 107 -54 261 -60 387 -14 35 13
60 19 55 14 -5 -5 -33 -18 -63 -29 -30 -11 -41 -18 -25 -14 47 8 137 52 131
63 -4 5 -1 13 5 17 8 4 9 3 5 -4 -11 -18 10 -14 25 5 10 11 10 14 2 9 -19 -11
-16 -1 4 15 11 10 14 10 9 2 -16 -28 13 -10 54 33 25 26 39 44 33 40 -8 -5
-13 -1 -13 9 0 10 5 14 13 9 6 -3 -125 131 -293 300 -168 168 -307 306 -310
306 -3 0 130 -136 295 -302 l300 -303 -313 310 c-171 170 -312 311 -312 312 0
1 10 7 21 14 15 8 19 8 15 0 -10 -15 4 -13 34 5 l25 15 -25 -5 c-18 -4 -16 -2
9 10 100 45 251 36 340 -22 l23 -16 -58 -59 -58 -59 49 -52 50 -53 -55 52 -55
53 55 57 55 58 -60 -57 -60 -58 58 -57 57 -58 118 119 c64 65 111 115 103 111
-10 -6 -13 -4 -9 7 4 10 -9 30 -36 57 -41 40 -65 54 -50 29 5 -9 2 -9 -9 1
-20 16 -23 26 -4 15 8 -5 8 -2 -2 9 -15 19 -36 23 -25 5 4 -7 3 -8 -5 -4 -6 4
-9 11 -6 16 3 5 -8 16 -24 25 -38 19 -51 19 -25 1 11 -9 -7 -6 -46 8 -60 22
-107 30 -235 41 -35 3 -41 2 -20 -4z m-205 -85 c0 -2 -8 -10 -17 -17 -16 -13
-17 -12 -4 4 13 16 21 21 21 13z m660 -71 c19 -19 32 -35 29 -35 -3 0 -20 16
-39 35 -19 19 -32 35 -29 35 3 0 20 -16 39 -35z m30 -58 c0 -1 -46 -47 -102
-102 l-103 -100 100 103 c93 95 105 107 105 99z m-709 -512 l-106 -104 45 -48
45 -48 -50 47 -50 48 105 105 c58 58 107 105 111 105 3 0 -42 -47 -100 -105z
m699 -128 c0 -2 -15 -16 -32 -33 l-33 -29 29 33 c28 30 36 37 36 29z m-689
-84 c13 -16 12 -17 -3 -4 -10 7 -18 15 -18 17 0 8 8 3 21 -13z"/>
<path d="M2163 2543 c9 -2 23 -2 30 0 6 3 -1 5 -18 5 -16 0 -22 -2 -12 -5z"/>
<path d="M1958 2533 c7 -3 16 -2 19 1 4 3 -2 6 -13 5 -11 0 -14 -3 -6 -6z"/>
<path d="M2240 2525 c46 -18 64 -17 25 0 -16 8 -37 14 -45 14 -8 0 1 -7 20
-14z"/>
<path d="M2088 2393 c7 -3 16 -2 19 1 4 3 -2 6 -13 5 -11 0 -14 -3 -6 -6z"/>
<path d="M1985 2380 c-14 -7 -8 -8 20 -3 22 3 42 7 44 9 9 8 -45 2 -64 -6z"/>
<path d="M2148 2383 c6 -2 18 -2 25 0 6 3 1 5 -13 5 -14 0 -19 -2 -12 -5z"/>
<path d="M2200 2373 c8 -3 34 -14 58 -24 23 -10 42 -16 42 -13 0 8 -83 44
-100 43 -13 -1 -13 -1 0 -6z"/>
<path d="M1361 2285 c-12 -31 -21 -61 -20 -68 0 -7 11 17 24 53 13 35 22 66
20 68 -1 2 -12 -22 -24 -53z"/>
<path d="M1885 2330 c3 -5 8 -10 11 -10 2 0 4 5 4 10 0 6 -5 10 -11 10 -5 0
-7 -4 -4 -10z"/>
<path d="M1526 2255 c-9 -26 -7 -32 5 -12 6 10 9 21 6 23 -2 3 -7 -2 -11 -11z"/>
<path d="M1505 2190 c-4 -17 -5 -34 -2 -36 2 -3 7 10 11 27 3 18 4 34 2 36 -2
3 -7 -10 -11 -27z"/>
<path d="M1332 2180 c0 -14 2 -19 5 -12 2 6 2 18 0 25 -3 6 -5 1 -5 -13z"/>
<path d="M1322 2120 c0 -19 2 -27 5 -17 2 9 2 25 0 35 -3 9 -5 1 -5 -18z"/>
<path d="M1492 2115 c0 -16 2 -22 5 -12 2 9 2 23 0 30 -3 6 -5 -1 -5 -18z"/>
<path d="M1483 2025 c0 -27 2 -38 4 -22 2 15 2 37 0 50 -2 12 -4 0 -4 -28z"/>
<path d="M1312 2025 c0 -16 2 -22 5 -12 2 9 2 23 0 30 -3 6 -5 -1 -5 -18z"/>
<path d="M1322 1930 c0 -19 2 -27 5 -17 2 9 2 25 0 35 -3 9 -5 1 -5 -18z"/>
<path d="M1492 1935 c0 -16 2 -22 5 -12 2 9 2 23 0 30 -3 6 -5 -1 -5 -18z"/>
<path d="M1502 1885 c0 -11 3 -29 8 -40 11 -25 11 1 0 35 -6 20 -8 21 -8 5z"/>
<path d="M1332 1870 c0 -14 2 -19 5 -12 2 6 2 18 0 25 -3 6 -5 1 -5 -13z"/>
<path d="M1341 1833 c-1 -16 40 -126 44 -121 2 2 -7 33 -20 68 -13 36 -24 60
-24 53z"/>
<path d="M1520 1815 c0 -5 5 -17 10 -25 5 -8 10 -10 10 -5 0 6 -5 17 -10 25
-5 8 -10 11 -10 5z"/>
<path d="M2260 1700 c-19 -11 -31 -19 -27 -20 11 0 67 29 67 35 0 7 -1 7 -40
-15z"/>
<path d="M1985 1670 c19 -8 73 -14 64 -6 -2 2 -22 6 -44 9 -28 5 -34 4 -20 -3z"/>
<path d="M2198 1673 c7 -3 16 -2 19 1 4 3 -2 6 -13 5 -11 0 -14 -3 -6 -6z"/>
<path d="M2148 1663 c6 -2 18 -2 25 0 6 3 1 5 -13 5 -14 0 -19 -2 -12 -5z"/>
<path d="M2088 1653 c7 -3 16 -2 19 1 4 3 -2 6 -13 5 -11 0 -14 -3 -6 -6z"/>
<path d="M1958 1513 c7 -3 16 -2 19 1 4 3 -2 6 -13 5 -11 0 -14 -3 -6 -6z"/>
<path d="M2003 1503 c9 -2 23 -2 30 0 6 3 -1 5 -18 5 -16 0 -22 -2 -12 -5z"/>
<path d="M2163 1503 c9 -2 23 -2 30 0 6 3 -1 5 -18 5 -16 0 -22 -2 -12 -5z"/>
<path d="M2073 1493 c9 -2 25 -2 35 0 9 3 1 5 -18 5 -19 0 -27 -2 -17 -5z"/>
<path d="M1918 1443 c7 -3 16 -2 19 1 4 3 -2 6 -13 5 -11 0 -14 -3 -6 -6z"/>
<path d="M1958 1433 c6 -2 18 -2 25 0 6 3 1 5 -13 5 -14 0 -19 -2 -12 -5z"/>
<path d="M2208 1433 c6 -2 18 -2 25 0 6 3 1 5 -13 5 -14 0 -19 -2 -12 -5z"/>
<path d="M2048 1423 c29 -2 74 -2 100 0 26 2 2 3 -53 3 -55 0 -76 -1 -47 -3z"/>
<path d="M2370 1310 c-8 -5 -10 -10 -5 -10 6 0 17 5 25 10 8 5 11 10 5 10 -5
0 -17 -5 -25 -10z"/>
<path d="M1908 1273 c7 -3 16 -2 19 1 4 3 -2 6 -13 5 -11 0 -14 -3 -6 -6z"/>
<path d="M2268 1273 c7 -3 16 -2 19 1 4 3 -2 6 -13 5 -11 0 -14 -3 -6 -6z"/>
<path d="M1948 1263 c6 -2 18 -2 25 0 6 3 1 5 -13 5 -14 0 -19 -2 -12 -5z"/>
<path d="M2213 1263 c9 -2 23 -2 30 0 6 3 -1 5 -18 5 -16 0 -22 -2 -12 -5z"/>
<path d="M2048 1253 c29 -2 74 -2 100 0 26 2 2 3 -53 3 -55 0 -76 -1 -47 -3z"/>
</g>
</svg>
